HIERARCHY
ROOT Hips
{
  OFFSET -33.9132 29.2015 117.021
  CHANNELS 6 Xposition Yposition Zposition Zrotation Xrotation Yrotation
  JOINT LeftUpLeg
  {
    OFFSET 8.64259 1.95398 -2.38835
    CHANNELS 3 Zrotation Xrotation Yrotation
    JOINT LeftLeg
    {
      OFFSET 43.7702 0 0
      CHANNELS 3 Zrotation Xrotation Yrotation
      JOINT LeftFoot
      {
        OFFSET 40.6238 0 0
        CHANNELS 3 Zrotation Xrotation Yrotation
        JOINT LeftToeBase
        {
          OFFSET 12.7242 0 0
          CHANNELS 3 Zrotation Xrotation Yrotation
          End Site
          {
            OFFSET 0 0 0
          }
        }
      }
    }
  }
  JOINT RightUpLeg
  {
    OFFSET -8.2249 1.95398 -2.59336
    CHANNELS 3 Zrotation Xrotation Yrotation
    JOINT RightLeg
    {
      OFFSET 43.5653 0 0
      CHANNELS 3 Zrotation Xrotation Yrotation
      JOINT RightFoot
      {
        OFFSET 40.6238 0 0
        CHANNELS 3 Zrotation Xrotation Yrotation
        JOINT RightToeBase
        {
          OFFSET 12.7242 0 0
          CHANNELS 3 Zrotation Xrotation Yrotation
          End Site
          {
            OFFSET 0 0 0
          }
        }
      }
    }
  }
  JOINT Spine
  {
    OFFSET 0.165834 0.87714 6.61349
    CHANNELS 3 Zrotation Xrotation Yrotation
    JOINT Spine1
    {
      OFFSET 7.38963 1.71661e-005 0
      CHANNELS 3 Zrotation Xrotation Yrotation
      JOINT Spine2
      {
        OFFSET 11.9445 1.14441e-005 0
        CHANNELS 3 Zrotation Xrotation Yrotation
        JOINT Spine3
        {
          OFFSET 14.7254 4.19617e-005 0
          CHANNELS 3 Zrotation Xrotation Yrotation
          JOINT Spine4
          {
            OFFSET 10.9679 0 0
            CHANNELS 3 Zrotation Xrotation Yrotation
            JOINT RightShoulder
            {
              OFFSET 2.46616 -1.6653 3.69651
              CHANNELS 3 Zrotation Xrotation Yrotation
              JOINT RightArm
              {
                OFFSET 13.0012 0 0
                CHANNELS 3 Zrotation Xrotation Yrotation
                JOINT RightForeArm
                {
                  OFFSET 28.7848 1.62311e-005 0
                  CHANNELS 3 Zrotation Xrotation Yrotation
                  JOINT RightHand
                  {
                    OFFSET 26.5688 1.62095e-005 0
                    CHANNELS 3 Zrotation Xrotation Yrotation
                    End Site
                    {
                      OFFSET 0 0 0
                    }
                  }
                }
              }
            }
            JOINT LeftShoulder
            {
              OFFSET 2.38034 -1.29275 -3.7523
              CHANNELS 3 Zrotation Xrotation Yrotation
              JOINT LeftArm
              {
                OFFSET 16.3182 6.07031e-005 0
                CHANNELS 3 Zrotation Xrotation Yrotation
                JOINT LeftForeArm
                {
                  OFFSET 27.0901 0 0
                  CHANNELS 3 Zrotation Xrotation Yrotation
                  JOINT LeftHand
                  {
                    OFFSET 24.5451 1.51738e-005 0
                    CHANNELS 3 Zrotation Xrotation Yrotation
                    End Site
                    {
                      OFFSET 0 0 0
                    }
                  }
                }
              }
            }
            JOINT Neck
            {
              OFFSET 5.0226 -0.0266342 0
              CHANNELS 3 Zrotation Xrotation Yrotation
              JOINT Head
              {
                OFFSET 6.69364 2.86102e-005 0
                CHANNELS 3 Zrotation Xrotation Yrotation
                End Site
                {
                  OFFSET 0 0 0
                }
              }
            }
          }
        }
      }
    }
  }
}
MOTION
Frames:	9
Frame Time:	0.0416667
142.313 14.9669 119.448 -7.71341 -1.94984 -90.8068 -170.843 2.48008 95.0292 -24.7557 9.29521 -1.85888 58.4982 -1.28145 -2.06909 53.2287 0.987668 48.7833 168.806 -0.66862 83.4535 -26.0264 -16.3093 0.965077 70.8109 -7.03774 -0.091977 37.1672 -4.49415 4.58839 -0.232403 6.28766 -90.0313 14.2987 -0.475648 0.00339223 2.62785 -0.475041 0.0243277 -19.908 -0.454673 -0.139689 0.104676 -0.454695 -0.139731 98.0493 6.09859 -102.765 38.169 67.9352 3.40191 -35.9023 13.9698 -113.877 -14.0718 4.81248 -44.519 -82.4183 -6.28185 82.7971 -6.20345 -62.862 -44.386 23.8417 33.1983 -44.5281 29.6851 -19.2634 -60.8937 34.6611 0.49739 -8.16557 -10.0169 3.25997 12.8682 
142.238 14.3567 119.689 -9.74748 -4.04845 -89.3589 -170.406 1.26697 96.9922 -26.1394 12.0727 -1.20184 59.5273 -0.876021 -1.87953 53.2362 0.795695 49.5268 168.231 -5.05426 84.4247 -22.9411 -14.7321 1.86757 68.9631 -6.18583 -1.05377 39.1617 -5.63025 7.25749 -0.48099 6.5506 -90.1763 13.7719 -1.03934 -0.215118 2.10138 -1.0478 -0.16914 -20.4365 -0.926644 -0.517535 -0.423809 -0.926648 -0.517542 98.2252 7.62932 -103.269 34.2426 68.2238 -5.25212 -46.5252 11.4895 -104.914 -26.1163 10.5731 -50.0103 -82.2751 -5.92798 83.0764 -5.7577 -62.1042 -43.682 20.5516 30.5471 -43.0891 30.1159 -19.1842 -60.2065 31.5621 3.51227 0.505545 -2.3631 3.16039 -0.385808 
142.236 14.4556 119.672 -9.41544 -3.86423 -89.5537 -170.495 1.57241 96.7598 -26.0189 11.7187 -1.26756 59.5193 -0.859611 -1.87573 53.0758 0.447319 50.1599 168.313 -4.41757 84.2646 -23.3168 -14.8901 1.79042 68.9544 -6.1157 -0.893172 37.3738 -5.02561 7.64167 -0.414656 6.49233 -90.0717 13.8897 -0.85695 -0.0290313 2.21904 -0.857377 0.00870783 -20.3182 -0.808612 -0.285261 -0.305549 -0.808602 -0.285262 97.7773 6.19806 -104.169 34.1156 69.445 -3.4301 -45.3171 11.6945 -105.68 -23.4172 9.75293 -51.0684 -82.0886 -2.89176 82.5565 -10.0461 -61.7151 -44.9261 22.0656 31.8272 -43.9973 30.973 -19.1488 -58.6669 30.924 2.67682 -2.667 -1.95335 3.64173 2.48469 
142.257 14.461 119.695 -9.45748 -3.797 -89.7557 -170.594 1.41611 96.5117 -25.9303 11.346 -1.25965 59.549 -0.839878 -2.13803 53.1441 0.272282 51.0599 168.162 -4.27179 83.9945 -23.567 -15.133 1.78905 69.0989 -6.20725 -1.01569 38.8492 -5.54434 7.49299 -0.420343 6.48817 -89.9966 13.8983 -0.831638 0.118338 2.22762 -0.825634 0.15482 -20.3097 -0.828768 -0.137124 -0.297003 -0.828752 -0.137096 97.5184 5.39818 -104.657 34.1843 69.7063 -3.78002 -45.6451 11.6371 -105.475 -23.6526 9.8818 -51.1852 -82.1731 -1.83844 81.8885 -10.3426 -61.8517 -44.0924 22.8286 32.3206 -44.807 31.1527 -18.9033 -57.7382 29.8833 2.16759 -4.13538 -1.25814 3.74364 3.27171 
142.227 14.4601 119.695 -9.64873 -3.77802 -89.764 -170.536 1.32376 96.5443 -26.1991 11.5318 -1.28573 59.2118 -1.10096 -1.78139 52.9043 -0.0260031 51.1671 168.1 -4.61645 83.9694 -23.251 -15.1667 1.77519 69.0281 -6.22702 -1.07104 38.9294 -5.54293 7.26061 -0.437817 6.52701 -89.9951 13.8208 -0.865565 0.12491 2.15013 -0.859225 0.162873 -20.3873 -0.863078 -0.141037 -0.374668 -0.863089 -0.141013 97.6322 6.39285 -105.049 33.2864 70.2727 -1.71735 -46.1457 11.9454 -105.569 -24.509 10.0704 -50.4221 -82.1825 -2.00416 81.919 -9.09075 -61.9358 -43.2772 22.6072 32.2572 -44.4613 31.3672 -19.0599 -57.8209 30.6876 2.37481 -3.99122 -2.07149 3.88804 3.31619 
142.25 14.4746 119.691 -9.55603 -3.70155 -89.7328 -170.565 1.50017 96.5619 -26.2813 11.5303 -1.28083 59.4106 -0.982656 -1.88073 53.123 -0.448711 53.4909 168.136 -4.53157 84.0228 -23.2022 -15.2579 1.76217 68.9889 -6.2432 -1.17974 39.2678 -5.6039 6.74819 -0.450315 6.47199 -89.9161 13.9313 -0.851652 0.282716 2.26055 -0.838382 0.319933 -20.2768 -0.897242 0.0136891 -0.264182 -0.897247 0.0136905 97.0561 4.02387 -105.51 34.512 70.2242 -4.77889 -46.1168 11.4808 -105.11 -23.4019 9.89215 -51.6916 -82.1215 -1.08951 81.7399 -9.44943 -61.6599 -42.7539 22.8593 32.3464 -44.987 31.6375 -19.1968 -57.7433 28.4345 1.71288 -5.85856 -0.0518668 3.99206 4.68427 
142.276 14.4826 119.692 -9.614 -3.76314 -89.7278 -170.536 1.36023 96.5933 -26.0819 11.6751 -1.26858 59.5001 -0.873491 -1.85324 53.3861 -0.702029 55.3517 168.14 -4.54814 84.0277 -23.327 -15.2044 1.77437 69.1645 -6.31666 -1.07494 37.2307 -4.93526 7.38518 -0.48313 6.47901 -89.9057 13.9175 -0.911575 0.311459 2.24683 -0.896999 0.351261 -20.2909 -0.963044 0.0230523 -0.278242 -0.963047 0.0230596 96.9946 4.27331 -106.013 34.2905 70.6093 -4.24748 -46.4367 11.5759 -105.071 -23.1102 9.80584 -51.8824 -81.8889 -0.927614 82.4658 -10.5309 -61.1815 -43.5964 23.0896 32.4897 -45.233 31.5371 -19.0805 -57.587 28.8126 1.88637 -5.90252 -0.398498 4.17773 4.67527 
142.3 14.4854 119.677 -9.51519 -3.76381 -89.6456 -170.511 1.41247 96.6863 -25.8496 11.7073 -1.26745 59.0664 -1.09717 -1.69545 54.1916 -0.114822 56.7616 168.203 -4.37203 84.1287 -23.517 -15.1154 1.81252 69.2079 -6.327 -1.1767 38.4323 -5.36451 7.29565 -0.503671 6.51605 -89.9323 13.8433 -0.965453 0.264346 2.17274 -0.952885 0.306586 -20.3653 -1.00026 -0.0380715 -0.352657 -1.00027 -0.0380547 97.1682 5.31589 -106.198 33.3414 70.8213 -2.78055 -45.8111 11.4156 -105.175 -23.7564 9.94517 -51.2657 -81.8957 -1.4007 82.6369 -9.27469 -61.8618 -43.1681 22.4546 31.9328 -44.7785 31.3256 -19.05 -57.8748 30.5119 2.19074 -5.33028 -1.8695 4.25861 3.98675 
142.194 14.4704 119.699 -9.64231 -3.79601 -89.7611 -170.56 1.5089 96.4967 -26.7112 11.598 -1.28726 59.8953 -0.701581 -1.31488 51.7805 -3.73876 58.5241 168.081 -4.7537 83.9883 -22.9396 -15.1292 1.75146 68.8781 -6.19464 -1.0447 39.7334 -5.82257 7.13565 -0.543686 6.47729 -89.8515 13.9217 -1.00521 0.432679 2.25104 -0.985161 0.476473 -20.2872 -1.08875 0.110541 -0.274511 -1.08876 0.110512 96.7711 3.20577 -106.041 35.0786 70.0278 -6.02513 -46.648 11.476 -104.881 -23.7066 9.93879 -51.3234 -81.9302 -0.38774 82.0933 -7.93579 -61.7951 -41.0203 22.7195 32.1924 -44.9373 31.1004 -18.9442 -57.9248 28.3386 1.89218 -6.47205 0.0553192 4.38759 4.36441 
